<?xml version="1.0" encoding="UTF-8"?> <svg xmlns="http://www.w3.org/2000/svg" xmlns:xlink="http://www.w3.org/1999/xlink" xmlns:svgjs="http://svgjs.com/svgjs" version="1.1" width="512" height="512" x="0" y="0" viewBox="0 0 512.001 512.001" style="enable-background:new 0 0 512 512" xml:space="preserve" class=""><g><g xmlns="http://www.w3.org/2000/svg"><circle cx="136" cy="286" r="15" fill="#ffbf00" data-original="#000000" style="" class=""></circle><circle cx="376" cy="286" r="15" fill="#ffbf00" data-original="#000000" style="" class=""></circle><path d="m510.859 220.26c-2.322-5.605-7.792-9.26-13.858-9.26h-46v-136c0-8.284-6.716-15-15-15-93.011 0-170.286-56.471-171.043-57.031-5.315-3.958-12.6-3.958-17.915 0-.766.57-77.682 57.031-171.043 57.031-8.284 0-15 6.716-15 15v136h-46c-6.067 0-11.537 3.655-13.858 9.26s-1.038 12.057 3.252 16.347l49.393 49.393-49.393 49.394c-4.29 4.29-5.573 10.742-3.252 16.347 2.322 5.605 7.791 9.259 13.858 9.259h70.765c32.196 71.27 91.999 125.732 165.491 150.23 1.54.513 3.142.77 4.744.77s3.204-.256 4.744-.77c73.493-24.497 133.296-78.96 165.491-150.23h70.765c6.067 0 11.537-3.655 13.858-9.26s1.038-12.057-3.252-16.347l-49.392-49.393 49.393-49.394c4.29-4.289 5.573-10.741 3.252-16.346zm-419.859-130.68c78.151-4.355 142.097-41.399 165-56.381 22.903 14.982 86.849 52.026 165 56.381v121.42h-30v-81.728c0-7.215-5.137-13.408-12.228-14.742-48.611-9.143-89.67-27.999-115.555-42.207-4.496-2.468-9.939-2.468-14.436 0-25.884 14.208-66.944 33.063-115.555 42.207-7.091 1.334-12.228 7.527-12.228 14.742v81.728h-29.998zm60 121.421v-69.501c42.887-9.572 79.466-25.6 105-39.002 25.534 13.402 62.113 29.43 105 39.002v69.501zm105 270.134c-59.092-21.055-107.847-64.053-136.912-120.135h34.43c23.221 37.692 57.15 67.825 96.35 85.383 1.951.874 4.042 1.311 6.132 1.311s4.181-.437 6.132-1.311c39.2-17.558 73.129-47.7 96.35-85.393l34.43.01c-29.064 56.082-77.819 99.08-136.912 120.135zm-66.146-120.135 132.293-.01c-17.767 23.389-40.531 42.437-66.147 55.123-25.616-12.685-48.379-31.724-66.146-55.113zm236.54-85.606c-5.858 5.858-5.858 15.355 0 21.213l34.393 34.393c-46.353 0-409.573 0-409.573 0l34.393-34.394c5.858-5.858 5.858-15.355 0-21.213l-34.393-34.394h409.573z" fill="#ffbf00" data-original="#000000" style="" class=""></path><path d="m316 271h-120c-8.284 0-15 6.716-15 15s6.716 15 15 15h120c8.284 0 15-6.716 15-15s-6.715-15-15-15z" fill="#ffbf00" data-original="#000000" style="" class=""></path></g></g></svg> 